<?xml version="1.0" encoding="utf-8"?>
<!-- Generator: Adobe Illustrator 23.0.6, SVG Export Plug-In . SVG Version: 6.00 Build 0)  -->
<svg version="1.1" id="Layer_1" xmlns="http://www.w3.org/2000/svg" xmlns:xlink="http://www.w3.org/1999/xlink" x="0px" y="0px"
	 viewBox="0 0 512 512" style="enable-background:new 0 0 512 512;" xml:space="preserve">
<style type="text/css">
	.st0{fill:#FFFFFF;}
</style>
<path class="st0" d="M427.3,296l-16-16H312v16h92.7l16,16H464v-16H427.3z"/>
<path class="st0" d="M260.7,336H192v16h75.3l16-16H328v-16h-51.3L260.7,336z"/>
<path class="st0" d="M264,240h32v16h-32V240z"/>
<path class="st0" d="M88,240c-22.4,0-40,24.6-40,56s17.6,56,40,56s40-24.6,40-56S110.4,240,88,240z M88,336c-13,0-24-18.3-24-40
	s11-40,24-40s24,18.3,24,40S101,336,88,336z"/>
<path class="st0" d="M424,208h-23.1c1.4-8.8,5.1-17.1,10.6-24H440c22.1,0,40-17.9,40-40v-8h-40c-20.7,0.1-37.9,15.9-39.6,36.5
	c-8.5,10.1-14,22.4-15.7,35.5h-34.9l-16-48h-59.5l-16,48h-57.3c0.5-18.5-9.3-35.8-25.4-45c-2.5-20-19.4-35-39.5-35H96v8
	c0,22.1,17.9,40,40,40h29.9c12.1,6,19.5,18.5,19,32H88c-39.7,0-72,39.5-72,88s32.3,88,72,88h336c39.7,0,72-39.5,72-88
	S463.7,208,424,208z M440,152h22.6c-3.4,9.6-12.5,16-22.6,16h-22.6C420.8,158.4,429.8,152,440,152z M136,160
	c-10.2,0-19.2-6.4-22.6-16H136c10.2,0,19.2,6.4,22.6,16H136z M32,296c0-39.7,25.1-72,56-72s56,32.3,56,72s-25.1,72-56,72
	S32,335.7,32,296z M474.1,328H368v16h97.6c-9.1,14.4-24.6,23.4-41.6,24H129.3c18.2-16.5,29.1-39.5,30.4-64h67.6l16-16H272v-16h-35.3
	l-16,16h-61c-0.8-11-3.4-21.8-7.6-32h80v-16h-88.5c-4-5.9-8.8-11.3-14.2-16h140.5l16-48h36.5l10.7,32H304v16h120
	c13.4,0.3,26.1,6.1,35.1,16H344v16h126.5c6.3,12.4,9.6,26.1,9.5,40C480,306.9,478,317.8,474.1,328z"/>
</svg>
