<?xml version="1.0" encoding="utf-8"?>
<!-- Generator: Adobe Illustrator 23.0.6, SVG Export Plug-In . SVG Version: 6.00 Build 0)  -->
<svg version="1.1" id="Capa_1" xmlns="http://www.w3.org/2000/svg" xmlns:xlink="http://www.w3.org/1999/xlink" x="0px" y="0px"
	 viewBox="0 0 475.1 475.1" style="enable-background:new 0 0 475.1 475.1;" xml:space="preserve">
<style type="text/css">
	.st0{fill:#FF3300;}
</style>
<g>
	<g>
		<path class="st0" d="M237.5,255.8c9.9,0,18.5-3.6,25.7-10.8c7.2-7.2,10.9-15.8,10.9-25.7V36.5c0-9.9-3.6-18.5-10.9-25.7
			C256,3.6,247.4,0,237.5,0c-9.9,0-18.5,3.6-25.7,10.9c-7.2,7.2-10.9,15.8-10.9,25.7v182.7c0,9.9,3.6,18.5,10.9,25.7
			C219.1,252.2,227.6,255.8,237.5,255.8z"/>
		<path class="st0" d="M433.8,157.9c-15.3-30.6-36.9-56.3-64.7-77.1c-8-6.1-17-8.5-27.1-7.1c-10.1,1.3-18.1,6.1-24,14.3
			c-6.1,8-8.4,17-7,27c1.4,10,6.1,18,14.1,24.1c18.6,14.1,33.1,31.3,43.3,51.7c10.2,20.4,15.3,42.1,15.3,65.1
			c0,19.8-3.9,38.7-11.6,56.7c-7.7,18-18.1,33.5-31.3,46.7c-13.1,13.1-28.7,23.6-46.7,31.3c-18,7.7-36.9,11.6-56.7,11.6
			c-19.8,0-38.7-3.9-56.7-11.6c-18-7.7-33.5-18.1-46.7-31.3c-13.1-13.1-23.6-28.7-31.3-46.7c-7.7-18-11.6-36.9-11.6-56.7
			c0-23,5.1-44.7,15.3-65.1c10.2-20.4,24.6-37.6,43.3-51.7c8-6.1,12.7-14.1,14.1-24.1c1.4-10-0.9-19-7-27
			c-5.9-8.2-13.8-12.9-23.8-14.3c-10-1.3-19.1,1-27.3,7.1c-27.8,20.7-49.3,46.4-64.7,77.1c-15.3,30.6-23,63.3-23,97.9
			c0,29.7,5.8,58.1,17.4,85.1c11.6,27,27.2,50.3,46.8,69.9c19.6,19.6,42.9,35.2,69.9,46.8c27,11.6,55.4,17.4,85.1,17.4
			c29.7,0,58.1-5.8,85.1-17.4c27-11.6,50.3-27.2,70-46.8c19.6-19.6,35.2-42.9,46.8-69.9s17.4-55.4,17.4-85.1
			C456.8,221.2,449.2,188.5,433.8,157.9z"/>
	</g>
</g>
</svg>
