<?xml version="1.0" encoding="utf-8"?>
<!-- Generator: Adobe Illustrator 23.0.6, SVG Export Plug-In . SVG Version: 6.00 Build 0)  -->
<svg version="1.1" id="Layer_1" xmlns="http://www.w3.org/2000/svg" xmlns:xlink="http://www.w3.org/1999/xlink" x="0px" y="0px"
	 viewBox="0 0 750 750" style="enable-background:new 0 0 750 750;" xml:space="preserve">
<style type="text/css">
	.st0{fill:#FFFFFF;}
</style>
<g id="surface1">
	<path class="st0" d="M637.5,71.1V0h-25v63.5c-4.1-0.6-8.3-1-12.5-1h-25V0h-25v62.5h-37.5V0h-25v62.5H450V0h-25v62.5h-37.5V0h-25
		v62.5H325V0h-25v62.5h-37.5V0h-25v62.5H200V0h-25v62.5h-25c-4.2,0-8.4,0.4-12.5,1V0h-25v71.1c-18.1,8.7-32.8,23.3-41.4,41.4H0v25
		h63.5c-0.6,4.1-1,8.3-1,12.5v25H0v25h62.5v37.5H0v25h62.5V300H0v25h62.5v37.5H0v25h62.5V425H0v25h62.5v37.5H0v25h62.5V550H0v25
		h62.5v25c0,4.2,0.4,8.4,1,12.5H0v25h71.1c8.7,18.1,23.3,32.8,41.4,41.4V750h25v-63.5c4.1,0.6,8.3,1,12.5,1h25V750h25v-62.5h37.5
		V750h25v-62.5H300V750h25v-62.5h37.5V750h25v-62.5H425V750h25v-62.5h37.5V750h25v-62.5H550V750h25v-62.5h25c4.2,0,8.4-0.4,12.5-1
		V750h25v-71.1c18.1-8.7,32.8-23.3,41.4-41.4H750v-25h-63.5c0.6-4.1,1-8.3,1-12.5v-25H750v-25h-62.5v-37.5H750v-25h-62.5V450H750
		v-25h-62.5v-37.5H750v-25h-62.5V325H750v-25h-62.5v-37.5H750v-25h-62.5V200H750v-25h-62.5v-25c0-4.2-0.4-8.4-1-12.5H750v-25h-71.1
		C670.3,94.4,655.6,79.7,637.5,71.1z M662.5,600c0,34.5-28,62.5-62.5,62.5H150c-34.5,0-62.5-28-62.5-62.5V150
		c0-34.5,28-62.5,62.5-62.5h450c34.5,0,62.5,28,62.5,62.5V600z"/>
	<path class="st0" d="M587.5,125h-425c-20.7,0-37.5,16.8-37.5,37.5v425c0,20.7,16.8,37.5,37.5,37.5h425c20.7,0,37.5-16.8,37.5-37.5
		v-425C625,141.8,608.2,125,587.5,125z M600,587.5c0,6.9-5.6,12.5-12.5,12.5h-425c-6.9,0-12.5-5.6-12.5-12.5v-425
		c0-6.9,5.6-12.5,12.5-12.5h425c6.9,0,12.5,5.6,12.5,12.5V587.5z"/>
	<path class="st0" d="M550,175h25v25h-25V175z"/>
	<path class="st0" d="M175,550h25v25h-25V550z"/>
	<path class="st0" d="M175,200v37.5h25V200h37.5v-25H200C186.2,175,175,186.2,175,200z"/>
	<path class="st0" d="M550,550h-37.5v25H575v-62.5h-25V550z"/>
</g>
</svg>
