<?xml version="1.0" encoding="utf-8"?>
<!-- Generator: Adobe Illustrator 23.0.6, SVG Export Plug-In . SVG Version: 6.00 Build 0)  -->
<svg version="1.1" id="Layer_1" xmlns="http://www.w3.org/2000/svg" xmlns:xlink="http://www.w3.org/1999/xlink" x="0px" y="0px"
	 viewBox="0 0 512 512" style="enable-background:new 0 0 512 512;" xml:space="preserve">
<style type="text/css">
	.st0{fill:#FFFFFF;}
</style>
<path class="st0" d="M497.7,191.5c7.9,0,14.3-6.4,14.3-14.3v-18.9c0-12.8-10.4-23.2-23.2-23.2H99.2c-4.2,0-7.7,3.4-7.7,7.7
	c0,4.2,3.4,7.7,7.7,7.7h389.6c4.3,0,7.9,3.5,7.9,7.9v17.9c-15.9,0-24.8-1.6-33.6,7.2c-15.5,15.5-4.4,41.9,17.8,41.9h15.8v64.4
	c0,4.3-3.5,7.9-7.9,7.9c-1.7,0-456.3,0-465.6,0c-4.3,0-7.9-3.5-7.9-7.9v-64.4h16.2c13.6,0,24.5-11,24.5-24.5
	c-0.1-13.9-11.6-24.5-25-24.5H15.3v-17.9c0-4.3,3.5-7.9,7.9-7.9h45.4c4.2,0,7.7-3.4,7.7-7.7c0-4.2-3.4-7.7-7.7-7.7H23.2
	C10.4,135,0,145.4,0,158.2v18.9c0,7.9,6.4,14.3,14.3,14.3h16.8c8.6,0,12.8,9.9,6.9,15.7c-3.5,3.5-5.8,2.7-23.7,2.7
	c-7.9,0-14.3,6.4-14.3,14.3v65.4c0,12.8,10.4,23.2,23.2,23.2h3.6v56.7c0,4.2,3.4,7.7,7.7,7.7h204.6c4.2,0,7.7-3.4,7.7-7.7v-28.1
	c0-5.1,4.1-9.2,9.2-9.2c5.1,0,9.2,4.1,9.2,9.2v28.1c0,4.2,3.4,7.7,7.7,7.7h204.6c4.2,0,7.7-3.4,7.7-7.7v-56.7h3.6
	c12.8,0,23.2-10.4,23.2-23.2v-65.4c0-7.9-6.4-14.3-14.3-14.3h-16.8c-8.5,0-12.8-9.9-6.9-15.7C477.4,190.7,479.7,191.5,497.7,191.5z
	 M469.8,361.9h-19.2V330c0-4.2-3.4-7.7-7.7-7.7c-4.2,0-7.7,3.4-7.7,7.7v31.9h-18.8V330c0-4.2-3.4-7.7-7.7-7.7
	c-4.2,0-7.7,3.4-7.7,7.7v31.9h-18.8V330c0-4.2-3.4-7.7-7.7-7.7c-4.2,0-7.7,3.4-7.7,7.7v31.9h-18.8V330c0-4.2-3.4-7.7-7.7-7.7
	s-7.7,3.4-7.7,7.7v31.9h-18.8V330c0-4.2-3.4-7.7-7.7-7.7s-7.7,3.4-7.7,7.7v31.9h-18.2v-20.4c0-13.5-10.9-24.5-24.5-24.5
	c-13.5,0-24.5,11-24.5,24.5v20.4h-18.2V330c0-4.2-3.4-7.7-7.7-7.7s-7.7,3.4-7.7,7.7v31.9h-18.8V330c0-4.2-3.4-7.7-7.7-7.7
	s-7.7,3.4-7.7,7.7v31.9h-18.8V330c0-4.2-3.4-7.7-7.7-7.7s-7.7,3.4-7.7,7.7v31.9h-18.8V330c0-4.2-3.4-7.7-7.7-7.7s-7.7,3.4-7.7,7.7
	v31.9H76.6V330c0-4.2-3.4-7.7-7.7-7.7c-4.2,0-7.7,3.4-7.7,7.7v31.9H42.2v-49.1h427.7V361.9z"/>
<path class="st0" d="M139.7,284.9c8.9,0,16.2-7.3,16.2-16.2v-88.2c0-8.9-7.3-16.2-16.2-16.2H109c-8.9,0-16.2,7.3-16.2,16.2v88.2
	c0,8.9,7.3,16.2,16.2,16.2H139.7z M108.2,268.7c0-93.6-0.4-89.1,0.9-89.1c32.9,0,31.6-0.4,31.6,0.9c0,93.6,0.4,89.1-0.9,89.1
	C106.8,269.5,108.2,269.9,108.2,268.7z"/>
<path class="st0" d="M227.5,284.9c8.9,0,16.2-7.3,16.2-16.2v-88.2c0-8.9-7.3-16.2-16.2-16.2h-30.7c-8.9,0-16.2,7.3-16.2,16.2v88.2
	c0,8.9,7.3,16.2,16.2,16.2H227.5z M195.9,268.7c0-93.6-0.4-89.1,0.9-89.1h30.7c0.5,0,0.9,0.4,0.9,0.9c0,93.6,0.4,89.1-0.9,89.1
	C194.5,269.5,195.9,269.9,195.9,268.7z"/>
<path class="st0" d="M315.2,284.9c8.9,0,16.2-7.3,16.2-16.2v-88.2c0-8.9-7.3-16.2-16.2-16.2h-30.7c-8.9,0-16.2,7.3-16.2,16.2v88.2
	c0,8.9,7.3,16.2,16.2,16.2H315.2z M283.7,268.7c0-93.6-0.4-89.1,0.9-89.1c32.9,0,31.6-0.4,31.6,0.9c0,93.6,0.4,89.1-0.9,89.1
	C282.3,269.5,283.7,269.9,283.7,268.7z"/>
<path class="st0" d="M403,284.9c8.9,0,16.2-7.3,16.2-16.2v-88.2c0-8.9-7.3-16.2-16.2-16.2h-30.7c-8.9,0-16.2,7.3-16.2,16.2v88.2
	c0,8.9,7.3,16.2,16.2,16.2H403z M371.4,268.7c0-93.6-0.4-89.1,0.9-89.1H403c0.5,0,0.9,0.4,0.9,0.9c0,93.6,0.4,89.1-0.9,89.1
	C370,269.5,371.4,269.9,371.4,268.7z"/>
</svg>
